PathFileType	4	(X/Y/Z)	Patient4_TMGait_0pt7_02_left_22.trc.trc
DataRate	CameraRate	NumFrames	NumMarkers	Units	OrigDataRate	OrigDataStartFrame	OrigNumFrames
89.743589743590	89.743589743590	5	33	mm	89.743589743590	106	       141
Frame#	Time	Sacral			L.Shoulder			Chest			R.Shoulder			Neck			R.ASIS			L.ASIS			R.Thigh.Superior			R.Thigh.Lateral			R.Thigh.Inferior			R.Patella			L.Thigh.Superior			L.Thigh.Lateral			L.Thigh.Inferior			L.Patella			L.Shank.Superior			L.Shank.Lateral			L.Shank.Inferior			R.Shank.Superior			R.Shank.Lateral			R.Shank.Inferior			R.Heel			R.Midfoot.Superior			R.Midfoot.Lateral			R.Toe			L.Heel			L.Midfoot.Lateral			L.Midfoot.Superior			L.Toe			L.Elbow			L.Wrist			R.Elbow			R.Wrist			
		X1	Y1	Z1	X2	Y2	Z2	X3	Y3	Z3	X4	Y4	Z4	X5	Y5	Z5	X6	Y6	Z6	X7	Y7	Z7	X8	Y8	Z8	X9	Y9	Z9	X10	Y10	Z10	X11	Y11	Z11	X12	Y12	Z12	X13	Y13	Z13	X14	Y14	Z14	X15	Y15	Z15	X16	Y16	Z16	X17	Y17	Z17	X18	Y18	Z18	X19	Y19	Z19	X20	Y20	Z20	X21	Y21	Z21	X22	Y22	Z22	X23	Y23	Z23	X24	Y24	Z24	X25	Y25	Z25	X26	Y26	Z26	X27	Y27	Z27	X28	Y28	Z28	X29	Y29	Z29	X30	Y30	Z30	X31	Y31	Z31	X32	Y32	Z32	X33	Y33	Z33	

106	26.190000000000	842.654443717078	1013.965996279893	548.025661078333	1019.730751549848	1433.289709341441	352.137057918244	1142.108857514685	1355.629313322397	496.467875403516	1090.300735479805	1432.336324177173	681.127364552240	1048.443228824883	1492.829220441774	505.893072684485	1075.618712276458	942.610501663259	645.416256551267	1039.903639781797	962.061176790652	373.573023764334	1094.896155930843	738.001118268308	613.212636236566	1007.167131890746	633.446307580334	675.422009669458	1076.188457809549	577.433921973269	592.824522284877	1067.601826741838	490.510323534279	597.580846664978	1137.764523454412	812.158171355372	398.047850226579	1119.218493954090	686.335747781845	305.788209171157	1233.942514780040	642.005955714399	363.248536113297	1268.676279856697	562.418940686778	348.025446688845	1228.528087538087	481.921598719034	338.719588071973	1115.070531871551	388.083833843174	289.782341768130	1159.706077911823	262.509410484822	338.116847798215	1036.395006152161	403.326001186752	601.638785634003	959.387579475343	300.961574238162	659.013123794849	999.183070827981	206.651949661102	592.265503232615	859.289413103555	43.829520063869	555.062789078100	1032.849463993854	98.242813155772	591.714433213182	943.124635948835	37.115465505208	628.292572562996	1151.315125830383	42.350335475712	616.724203846650	1017.769498773892	118.385095962830	376.327383268602	1083.005074864772	111.708383096011	289.573015124000	1175.251515723314	162.544589047792	309.914211285469	1291.343420676386	99.742109175024	266.091935950619	934.425807994835	1084.839731949302	258.223218252870	977.436169035012	830.314002431976	242.274689065463	1151.316293909971	1085.094621802353	798.238053923962	1349.506353287237	928.382361317246	735.181416663112	
107	26.201142857143	841.724625050756	1013.774896888925	548.264119709463	1018.850845040330	1432.706486318183	351.938100949595	1141.663228559556	1354.928270982450	495.763013408847	1090.652050246931	1431.589513556406	680.797473565012	1048.139943137604	1492.212377559851	505.717324307904	1074.915889526119	942.268606714330	645.136290213334	1038.583780649446	961.262451443354	373.144398220194	1091.856951518108	736.998608015228	612.881126206368	1002.827731114628	633.257739970322	675.492059513193	1070.617603351515	576.429165721689	592.805618293516	1060.988747803909	489.896138452959	597.398977440959	1136.236981399896	812.401696987046	398.760618793409	1118.914232923760	686.497232689946	306.032628525551	1233.581105741481	643.041987634173	363.848755147251	1269.622770554520	565.008850064569	348.892319583493	1232.740497448456	484.179766766123	338.970842065394	1124.962307638540	385.432765473410	287.564143795082	1174.935440755439	261.688182773801	335.926625349947	1029.492357851309	402.866031645577	601.505445011031	952.375226533031	300.740398051774	659.110021821754	991.632377978981	206.364582408179	592.154153157793	851.385569712337	43.678971298398	555.100849657978	1024.887615563749	98.154251355448	591.665942519921	935.211753651666	37.064418604171	628.339551499266	1143.440419726321	42.311603793501	616.717958167656	1039.702166014885	110.832604318467	370.981000610561	1106.797278317366	107.504409417089	285.462323601178	1196.103408499889	162.360124221838	307.675822548533	1315.668822049449	105.013362124430	265.944906279819	927.825911331263	1085.641888169568	258.826092724682	952.981539394200	829.102583817414	241.272384280516	1160.469640986000	1086.629145629470	797.643473774193	1367.902542714239	946.316385978040	727.726908362987	
108	26.212285714286	840.950397062259	1013.640729207694	548.316800290214	1018.231984685465	1432.202530110299	351.584081069002	1141.357095848826	1354.265929516467	494.967466602928	1091.051207770526	1430.900818112209	680.321678292019	1047.973611328644	1491.633939158001	505.404923257845	1074.273170532602	942.013523426605	644.859499589186	1037.485326480784	960.404748772959	372.619114684326	1088.836909652681	736.015453033532	612.841808453967	998.258115041412	633.180881171605	675.614009702537	1064.930622335792	575.479893204713	592.991283317829	1054.237945985198	489.368002456705	597.403551361859	1134.669888844023	812.185274083225	399.295273751169	1118.094109935502	686.154292326045	306.207216013821	1232.706470862209	643.355085359402	364.238901943910	1269.838403526012	566.929808269996	349.734200861654	1236.199703562724	485.981229979572	339.373711554306	1134.412533734764	382.621299471547	285.418337030218	1189.466950513996	261.008486205272	334.084020081292	1022.429675450602	402.542021633354	601.517022481528	945.149322451920	300.642149050611	659.268747302850	983.997573159038	206.195680581618	592.169344660650	843.476144032004	43.590421005317	555.159475717810	1016.946509261555	98.093900199241	591.673944200419	927.302910426365	37.019360992083	628.390989718733	1135.570629744692	42.284233812304	616.712374755462	1061.148361608858	103.855730654774	365.906127501434	1130.142365973284	103.793547574558	281.813886567116	1216.276053597838	162.526619038861	305.976917395452	1339.111734799441	110.691490180866	266.755005642843	921.059434596228	1086.975137001952	258.857213614419	929.688473112254	829.652922401737	240.422102641138	1169.242404596300	1088.452858326755	796.749447677443	1384.568571894836	965.528717326968	720.014421157243	
109	26.223428571429	840.359662515157	1013.563291600783	548.182882712565	1017.872338141193	1431.774759588544	351.070582764159	1141.191617702329	1353.652046727527	494.087568428156	1091.486280670051	1430.285997517564	679.692547208679	1047.938401340694	1491.099663807465	504.945413041069	1073.694916828240	941.829295423856	644.574095459293	1036.643864799124	959.513101704614	372.007543022294	1085.847681617188	735.048256822577	613.071583218440	993.492341480762	633.213538044382	675.770550224477	1059.162288179250	574.593704855518	593.352281834987	1047.399562168841	488.920299819893	597.570649366633	1133.115961179191	811.528198197536	399.634382195318	1116.829171960682	685.328646078114	306.273723715361	1231.370002988076	642.941589503671	364.421764215664	1269.366091540865	568.164680503564	350.525381073504	1238.903085921233	487.300098827421	339.877354412640	1143.280462696785	379.651564642281	283.424797919608	1203.152363485824	260.425676033872	332.611069985723	1015.249610674857	402.355261875600	601.654321761257	937.747298007132	300.674029463519	659.477863189979	976.302903931523	206.144498865011	592.296762865937	835.566294447172	43.570581873311	555.237395754604	1009.035236275602	98.062579368397	591.736388671212	919.401630438098	36.982484471015	628.443789354807	1127.706797453976	42.257244197802	616.710451696403	1081.880824976283	97.457594351754	361.311573651298	1152.726125478383	100.516027658236	278.748563593228	1235.537620765866	162.956355394726	304.807976972538	1361.384903593556	116.601092378726	268.365352454758	914.086693414820	1088.864083359611	258.367210116001	907.769149574770	831.720006966863	239.693049003685	1177.637469293311	1090.551896526057	795.535639890963	1399.380579638221	985.839257527094	712.125586156488	
110	26.234571428571	839.974739229235	1013.530576476624	547.857902507628	1017.758112064692	1431.408952977670	350.396496307740	1141.160975225092	1353.088101981577	493.130827725847	1091.937282776985	1429.750726509542	678.907375935917	1048.017707752361	1490.605677953079	504.331948145834	1073.188199721569	941.688174335528	644.261250007930	1036.088742283870	958.602164384634	371.317167453043	1082.901932653848	734.088276612653	613.515913398751	988.584481901276	633.342877601246	675.934502089743	1053.358642921251	573.771467832869	593.839012909080	1040.537874377368	488.537698224429	597.861142377903	1131.625671434548	810.451628651420	399.774041512477	1115.212777561434	684.050635764419	306.206560082642	1229.633888667745	641.811682045625	364.427674497845	1268.267743627861	568.703986117567	351.249888929840	1240.858651629878	488.109183452686	340.426924632591	1151.399450610921	376.519014151289	281.680052247106	1215.825640121880	259.874192874164	331.522783348342	1008.008833038838	402.292982390812	601.887174331021	930.221439190349	300.832843830370	659.720611631765	968.577831298756	206.199683938659	592.514224172034	827.660926047917	43.620710065229	555.333076749937	1001.159330861783	98.058733228347	591.847891660357	911.510076225928	36.954498810404	628.495338338848	1119.848455336064	42.220979501740	616.714712520987	1101.629517569129	91.620292648192	357.428755511011	1174.173354028802	97.581670548639	276.383001066535	1253.621615826424	163.526793148546	304.135609177792	1382.162109875295	122.510582893976	270.543259675951	906.896971557370	1091.306985377557	257.426192361258	887.347651874138	835.025990338073	239.060206360975	1185.662687317933	1092.903941828784	793.988013550886	1412.253513942480	1007.034083596921	704.148140843264	
